<svg xmlns="http://www.w3.org/2000/svg" viewBox="0 0 659.14 291.33"><title>Asset 3</title><g id="Layer_2" data-name="Layer 2"><g id="Layer_1-2" data-name="Layer 1"><path d="M153.83,0l26.85,234.61L349.77,0h71.11V8q-23.2,1.5-27.29,3-7.08,2.79-13,11.17T367.81,54.36L313.89,239.12q-4.74,16.11-4.73,25.35,0,8.38,5.8,12.68,8.16,6.23,25.78,6.23h5.16L344,291.33H221.29l2.15-7.95h5.8q16.32,0,24.92-4.73,6.66-3.43,11.92-13t14.72-42.43L328.93,54.36l-170,237h-8.59l-27.28-237-52,180.25q-6.66,23-6.66,30.94t5.8,12.14q5.81,4.19,28.15,5.69L96,291.33H0l2.36-7.95h5.8q21.27,0,30.73-10.74,6.87-7.74,14.39-33.52L116.66,21.91q-7.09-7.29-13.53-9.88T79.28,8L81.43,0Z"/><path d="M523.36,15.68l-33.3,115.16h27.28q29.22,0,42.33-8.92t22.56-33h7.95l-29.87,105.7h-8.59q3.87-13.32,3.87-22.77,0-9.24-3.76-14.83a22.34,22.34,0,0,0-10.32-8.27q-6.56-2.68-27.6-2.69H486.19l-28.14,96.47q-4.1,14-4.09,21.27,0,5.58,5.38,9.88,3.65,3,18.26,3h25.78q41.89,0,67.14-14.83t45.22-51.56h8l-27.5,81H371l2.79-7.95q16.76-.44,22.56-3,8.58-3.87,12.46-9.88,5.79-8.81,13.75-37L473.73,57.79q6-21.27,6-32.44,0-8.16-5.7-12.78T451.82,8H447.3L449.88,0H659.14l-18,70.25h-8a113.75,113.75,0,0,0,1.51-16.54q0-11.39-5.59-19.12-7.3-9.89-21.27-15-10.31-3.87-47.48-3.87Z"/></g></g></svg>